<svg width="1429" height="735" viewBox="0 0 1429 735" fill="none" xmlns="http://www.w3.org/2000/svg">
<path d="M1136.05 500H1206.05V328C1206.05 268 1153.55 245 1096.05 245C1038.05 245 982.049 270.5 982.049 336H1053.55C1053.55 311.5 1069.05 298 1094.05 298C1116.55 298 1133.55 308.5 1133.55 326C1133.55 375 974.549 327.5 974.549 433.5C974.549 483 1015.05 505 1056.55 505C1091.05 505 1120.05 492.5 1136.05 462V500ZM1047.05 427.5C1047.05 398.5 1100.05 403 1134.55 387.5V400.5C1134.55 434 1108.55 451.5 1078.55 451.5C1061.05 451.5 1047.05 443.5 1047.05 427.5Z" fill="black"/>
<mask id="mask0_86_170" style="mask-type:alpha" maskUnits="userSpaceOnUse" x="1187" y="521" width="212" height="212">
<circle cx="1293" cy="627" r="106" fill="#D9D9D9"/>
</mask>
<g mask="url(#mask0_86_170)">
<path d="M1254.28 686H1366.28V410.8C1366.28 314.8 1282.28 278 1190.28 278C1097.48 278 1007.88 318.8 1007.88 423.6H1122.28C1122.28 384.4 1147.08 362.8 1187.08 362.8C1223.08 362.8 1250.28 379.6 1250.28 407.6C1250.28 486 995.878 410 995.878 579.6C995.878 658.8 1060.68 694 1127.08 694C1182.28 694 1228.68 674 1254.28 625.2V686ZM1111.88 570C1111.88 523.6 1196.68 530.8 1251.88 506V526.8C1251.88 580.4 1210.28 608.4 1162.28 608.4C1134.28 608.4 1111.88 595.6 1111.88 570Z" fill="black"/>
</g>
<circle cx="1293" cy="627" r="106" stroke="#1370A4" stroke-width="4" stroke-linecap="round" stroke-linejoin="round" stroke-dasharray="14 20"/>
<circle cx="1133" cy="466" r="47" stroke="#1370A4" stroke-width="4" stroke-linecap="round" stroke-linejoin="round" stroke-dasharray="14 20"/>
<line x1="1173.83" y1="505" x2="1213" y2="544.172" stroke="#1370A4" stroke-width="4" stroke-linecap="round" stroke-dasharray="14 20"/>
<path d="M283.121 273.5C319.788 273.5 347.788 281.5 367.121 297.5C386.788 313.167 396.621 337.333 396.621 370V552H344.621L330.121 515H328.121C320.454 524.667 312.454 532.667 304.121 539C296.121 545.333 286.788 549.833 276.121 552.5C265.788 555.5 252.954 557 237.621 557C221.621 557 207.121 554 194.121 548C181.454 541.667 171.454 532.167 164.121 519.5C156.788 506.5 153.121 490.167 153.121 470.5C153.121 441.5 163.288 420.167 183.621 406.5C203.954 392.5 234.454 384.833 275.121 383.5L322.621 382V370C322.621 355.667 318.788 345.167 311.121 338.5C303.788 331.833 293.454 328.5 280.121 328.5C266.788 328.5 253.788 330.5 241.121 334.5C228.454 338.167 215.788 342.833 203.121 348.5L178.621 298C193.288 290.333 209.454 284.333 227.121 280C245.121 275.667 263.788 273.5 283.121 273.5ZM293.621 426.5C269.621 427.167 252.954 431.5 243.621 439.5C234.288 447.5 229.621 458 229.621 471C229.621 482.333 232.954 490.5 239.621 495.5C246.288 500.167 254.954 502.5 265.621 502.5C281.621 502.5 295.121 497.833 306.121 488.5C317.121 478.833 322.621 465.333 322.621 448V425.5L293.621 426.5Z" fill="black"/>
<mask id="mask1_86_170" style="mask-type:alpha" maskUnits="userSpaceOnUse" x="262" y="440" width="212" height="212">
<circle cx="368" cy="546" r="106" fill="#D9D9D9"/>
</mask>
<g mask="url(#mask1_86_170)">
<path d="M262.194 159.4C320.86 159.4 365.66 172.2 396.594 197.8C428.06 222.867 443.794 261.533 443.794 313.8V605H360.594L337.394 545.8H334.194C321.927 561.267 309.127 574.067 295.794 584.2C282.994 594.333 268.06 601.533 250.994 605.8C234.46 610.6 213.927 613 189.394 613C163.794 613 140.594 608.2 119.794 598.6C99.5271 588.467 83.5271 573.267 71.7938 553C60.0604 532.2 54.1938 506.067 54.1938 474.6C54.1938 428.2 70.4604 394.067 102.994 372.2C135.527 349.8 184.327 337.533 249.394 335.4L325.394 333V313.8C325.394 290.867 319.26 274.067 306.994 263.4C295.26 252.733 278.727 247.4 257.394 247.4C236.06 247.4 215.26 250.6 194.994 257C174.727 262.867 154.46 270.333 134.194 279.4L94.9938 198.6C118.46 186.333 144.327 176.733 172.594 169.8C201.394 162.867 231.26 159.4 262.194 159.4ZM278.994 404.2C240.594 405.267 213.927 412.2 198.994 425C184.06 437.8 176.594 454.6 176.594 475.4C176.594 493.533 181.927 506.6 192.594 514.6C203.26 522.067 217.127 525.8 234.194 525.8C259.794 525.8 281.394 518.333 298.994 503.4C316.594 487.933 325.394 466.333 325.394 438.6V402.6L278.994 404.2Z" fill="black"/>
</g>
<circle cx="368" cy="546" r="106" stroke="#1370A4" stroke-width="4" stroke-linecap="round" stroke-linejoin="round" stroke-dasharray="14 20"/>
<circle cx="205.5" cy="317.5" r="64.5" stroke="#1370A4" stroke-width="4" stroke-linecap="round" stroke-linejoin="round" stroke-dasharray="14 20"/>
</svg>
