<svg width="670" height="735" viewBox="0 0 670 735" fill="none" xmlns="http://www.w3.org/2000/svg">
<path d="M377.049 500H447.049V328C447.049 268 394.549 245 337.049 245C279.049 245 223.049 270.5 223.049 336H294.549C294.549 311.5 310.049 298 335.049 298C357.549 298 374.549 308.5 374.549 326C374.549 375 215.549 327.5 215.549 433.5C215.549 483 256.049 505 297.549 505C332.049 505 361.049 492.5 377.049 462V500ZM288.049 427.5C288.049 398.5 341.049 403 375.549 387.5V400.5C375.549 434 349.549 451.5 319.549 451.5C302.049 451.5 288.049 443.5 288.049 427.5Z" fill="black"/>
<mask id="mask0_85_169" style="mask-type:alpha" maskUnits="userSpaceOnUse" x="428" y="521" width="212" height="212">
<circle cx="534" cy="627" r="106" fill="#D9D9D9"/>
</mask>
<g mask="url(#mask0_85_169)">
<path d="M495.278 686H607.278V410.8C607.278 314.8 523.278 278 431.278 278C338.478 278 248.878 318.8 248.878 423.6H363.278C363.278 384.4 388.078 362.8 428.078 362.8C464.078 362.8 491.278 379.6 491.278 407.6C491.278 486 236.878 410 236.878 579.6C236.878 658.8 301.678 694 368.078 694C423.278 694 469.678 674 495.278 625.2V686ZM352.878 570C352.878 523.6 437.678 530.8 492.878 506V526.8C492.878 580.4 451.278 608.4 403.278 608.4C375.278 608.4 352.878 595.6 352.878 570Z" fill="black"/>
</g>
<circle cx="534" cy="627" r="106" stroke="#1370A4" stroke-width="4" stroke-linecap="round" stroke-linejoin="round" stroke-dasharray="14 20"/>
<circle cx="374" cy="466" r="47" stroke="#1370A4" stroke-width="4" stroke-linecap="round" stroke-linejoin="round" stroke-dasharray="14 20"/>
<line x1="414.828" y1="505" x2="454" y2="544.172" stroke="#1370A4" stroke-width="4" stroke-linecap="round" stroke-dasharray="14 20"/>
</svg>
