<svg width="618" height="630" viewBox="0 0 618 630" fill="none" xmlns="http://www.w3.org/2000/svg">
<path d="M283.121 221.5C319.788 221.5 347.788 229.5 367.121 245.5C386.788 261.167 396.621 285.333 396.621 318V500H344.621L330.121 463H328.121C320.454 472.667 312.454 480.667 304.121 487C296.121 493.333 286.788 497.833 276.121 500.5C265.788 503.5 252.954 505 237.621 505C221.621 505 207.121 502 194.121 496C181.454 489.667 171.454 480.167 164.121 467.5C156.788 454.5 153.121 438.167 153.121 418.5C153.121 389.5 163.288 368.167 183.621 354.5C203.954 340.5 234.454 332.833 275.121 331.5L322.621 330V318C322.621 303.667 318.788 293.167 311.121 286.5C303.788 279.833 293.454 276.5 280.121 276.5C266.788 276.5 253.788 278.5 241.121 282.5C228.454 286.167 215.788 290.833 203.121 296.5L178.621 246C193.288 238.333 209.454 232.333 227.121 228C245.121 223.667 263.788 221.5 283.121 221.5ZM293.621 374.5C269.621 375.167 252.954 379.5 243.621 387.5C234.288 395.5 229.621 406 229.621 419C229.621 430.333 232.954 438.5 239.621 443.5C246.288 448.167 254.954 450.5 265.621 450.5C281.621 450.5 295.121 445.833 306.121 436.5C317.121 426.833 322.621 413.333 322.621 396V373.5L293.621 374.5Z" fill="black"/>
<mask id="mask0_84_168" style="mask-type:alpha" maskUnits="userSpaceOnUse" x="262" y="388" width="212" height="212">
<circle cx="368" cy="494" r="106" fill="#D9D9D9"/>
</mask>
<g mask="url(#mask0_84_168)">
<path d="M262.194 107.4C320.86 107.4 365.66 120.2 396.594 145.8C428.06 170.867 443.794 209.533 443.794 261.8V553H360.594L337.394 493.8H334.194C321.927 509.267 309.127 522.067 295.794 532.2C282.994 542.333 268.06 549.533 250.994 553.8C234.46 558.6 213.927 561 189.394 561C163.794 561 140.594 556.2 119.794 546.6C99.5271 536.467 83.5271 521.267 71.7938 501C60.0604 480.2 54.1938 454.067 54.1938 422.6C54.1938 376.2 70.4604 342.067 102.994 320.2C135.527 297.8 184.327 285.533 249.394 283.4L325.394 281V261.8C325.394 238.867 319.26 222.067 306.994 211.4C295.26 200.733 278.727 195.4 257.394 195.4C236.06 195.4 215.26 198.6 194.994 205C174.727 210.867 154.46 218.333 134.194 227.4L94.9938 146.6C118.46 134.333 144.327 124.733 172.594 117.8C201.394 110.867 231.26 107.4 262.194 107.4ZM278.994 352.2C240.594 353.267 213.927 360.2 198.994 373C184.06 385.8 176.594 402.6 176.594 423.4C176.594 441.533 181.927 454.6 192.594 462.6C203.26 470.067 217.127 473.8 234.194 473.8C259.794 473.8 281.394 466.333 298.994 451.4C316.594 435.933 325.394 414.333 325.394 386.6V350.6L278.994 352.2Z" fill="black"/>
</g>
<circle cx="368" cy="494" r="106" stroke="#1370A4" stroke-width="4" stroke-linecap="round" stroke-linejoin="round" stroke-dasharray="14 20"/>
<circle cx="205.5" cy="265.5" r="64.5" stroke="#1370A4" stroke-width="4" stroke-linecap="round" stroke-linejoin="round" stroke-dasharray="14 20"/>
</svg>
