<svg width="363" height="273" viewBox="0 0 363 273" fill="none" xmlns="http://www.w3.org/2000/svg">
<path d="M0.878147 10.4C-1.22646 0.790257 1.10452 0.889048 1.10452 0.889048C1.10452 0.889048 1.20196 -1.44611 10.6089 1.45315C15.0001 2.80757 24.0547 11.2033 32.4588 19.7707C37.5262 24.653 43.6709 30.7507 50.8286 38.1657C55.3731 37.7218 62.9333 36.9902 71.8804 36.1498L66.5566 30.3641C65.9014 29.6493 65.5569 28.7039 65.5985 27.7354C65.6401 26.7669 66.0646 25.8545 66.7786 25.1984L67.8216 24.2406C68.1755 23.9152 68.59 23.6627 69.0416 23.4975C69.4931 23.3323 69.9728 23.2575 70.4532 23.2776C70.9336 23.2977 71.4054 23.4122 71.8415 23.6145C72.2777 23.8168 72.6696 24.103 72.9951 24.4568L82.8233 35.1361C88.2187 34.6407 93.8434 34.1339 99.4194 33.6442L94.5612 28.3669C93.9042 27.6524 93.558 26.7063 93.5989 25.7368C93.6397 24.7673 94.0642 23.8537 94.779 23.1969L95.822 22.2391C96.1757 21.9137 96.5901 21.6612 97.0415 21.496C97.4929 21.3308 97.9725 21.2561 98.4528 21.2762C98.9331 21.2963 99.4048 21.4107 99.8408 21.613C100.277 21.8153 100.669 22.1015 100.994 22.4552L110.418 32.6964C128.41 31.1931 143.814 30.1193 146.366 30.6147C146.366 30.6147 152.219 34.5348 153.485 36.2571C154.75 37.9795 153.212 38.7527 150.876 38.6539C149.563 38.5995 130.52 45.0237 113.779 50.7721L113.99 51.0011C114.122 51.1445 114.224 51.3124 114.291 51.4954C114.358 51.6783 114.389 51.8726 114.381 52.0673C114.372 52.2619 114.326 52.453 114.244 52.6298C114.162 52.8065 114.046 52.9653 113.902 53.0972L113.48 53.4852C113.19 53.7512 112.806 53.8915 112.413 53.8751C112.02 53.8587 111.649 53.6871 111.382 53.3979L110.123 52.0291L104.852 53.846L105.139 54.1552C105.271 54.2986 105.373 54.4665 105.44 54.6495C105.507 54.8324 105.538 55.0267 105.529 55.2214C105.521 55.416 105.475 55.6071 105.393 55.7839C105.311 55.9606 105.195 56.1194 105.051 56.2513L104.622 56.6393C104.333 56.9011 103.952 57.0389 103.562 57.0228C103.173 57.0067 102.805 56.8381 102.538 56.5534L101.212 55.1102L96.7332 56.6636L97.0197 56.9686C97.2858 57.2585 97.4258 57.642 97.4092 58.035C97.3925 58.428 97.2205 58.7983 96.9309 59.0647L96.5011 59.4527C96.3576 59.5846 96.1896 59.687 96.0065 59.754C95.8235 59.821 95.629 59.8513 95.4343 59.8432C95.2395 59.8351 95.0482 59.7887 94.8714 59.7067C94.6945 59.6247 94.5356 59.5087 94.4036 59.3653L93.0841 57.9336C90.342 58.8886 88.5984 59.497 88.3262 59.5944C87.9623 59.7218 87.1629 60.1327 86.1313 60.6968L86.6299 61.238C87.1272 61.7787 87.3893 62.4946 87.3587 63.2283C87.3281 63.962 87.0072 64.6536 86.4666 65.151L85.6772 65.8754C85.4095 66.1216 85.0959 66.3127 84.7543 66.4377C84.4127 66.5628 84.0498 66.6194 83.6863 66.6042C83.3228 66.589 82.9659 66.5025 82.6359 66.3494C82.3059 66.1964 82.0093 65.9798 81.7631 65.7122L80.2516 64.07C78.9006 64.866 77.6584 65.6048 76.7802 66.1288C84.0391 74.242 91.8802 83.2519 100.303 93.1585C100.303 93.1585 107.114 101.623 114.013 111.657L150.698 108.414C150.698 108.414 161.76 111.717 159.457 114.795C159.457 114.795 142.122 121.419 139.738 122.655C137.933 123.589 128.887 127.164 124.552 128.865C124.938 129.628 125.3 130.374 125.636 131.102C127.53 134.345 128.97 137.043 128.97 137.043L128.433 137.537L132 141.412C132.104 141.524 132.184 141.656 132.237 141.799C132.289 141.942 132.313 142.094 132.307 142.247C132.301 142.399 132.265 142.549 132.201 142.687C132.136 142.826 132.046 142.95 131.933 143.054C131.821 143.157 131.69 143.237 131.546 143.29C131.403 143.343 131.251 143.367 131.098 143.36C130.946 143.354 130.796 143.318 130.657 143.254C130.519 143.19 130.394 143.099 130.291 142.987L126.725 139.11L126.178 139.594C126.178 139.594 123.609 137.935 120.533 135.778C119.834 135.382 119.12 134.959 118.392 134.51C116.334 138.688 112.011 147.395 110.931 149.114C109.498 151.391 101.442 168.094 101.442 168.094C98.1816 170.129 95.8134 158.838 95.8134 158.838L102.117 122.576C92.6901 114.871 84.819 107.38 84.819 107.38C75.6231 98.1739 67.2944 89.6121 59.833 81.6946C59.237 82.525 58.4003 83.6991 57.4892 84.979L59.0006 86.6198C59.4977 87.1606 59.7596 87.8766 59.7287 88.6103C59.6978 89.3441 59.3767 90.0355 58.8359 90.5327L58.0465 91.2586C57.5055 91.7553 56.7893 92.017 56.0553 91.9861C55.3213 91.9552 54.6296 91.6343 54.1324 91.094L53.6338 90.5528C52.9848 91.5306 52.5091 92.2938 52.3444 92.6445C52.2269 92.908 51.4733 94.5945 50.2914 97.2447L51.6123 98.6764C51.7442 98.8197 51.8465 98.9876 51.9134 99.1705C51.9803 99.3533 52.0105 99.5476 52.0022 99.7421C51.994 99.9367 51.9474 100.128 51.8653 100.304C51.7831 100.481 51.667 100.639 51.5234 100.771L51.1008 101.16C50.9573 101.292 50.7892 101.395 50.6061 101.461C50.423 101.528 50.2285 101.559 50.0337 101.55C49.8389 101.542 49.6477 101.496 49.4709 101.413C49.2941 101.331 49.1353 101.215 49.0034 101.072L48.7168 100.767L46.8071 105.102L48.1352 106.544C48.4012 106.834 48.5413 107.217 48.5246 107.61C48.508 108.003 48.3359 108.373 48.0463 108.64L47.6237 109.029C47.3336 109.295 46.9498 109.435 46.5566 109.418C46.1634 109.402 45.7928 109.23 45.5263 108.941L45.2397 108.633C44.5162 110.268 43.7598 111.976 42.9861 113.73L44.2455 115.097C44.3775 115.24 44.4799 115.408 44.5469 115.591C44.614 115.774 44.6443 115.968 44.6362 116.163C44.6281 116.358 44.5817 116.549 44.4996 116.726C44.4176 116.902 44.3015 117.061 44.158 117.193L43.7354 117.582C43.4453 117.848 43.0616 117.988 42.6683 117.972C42.2751 117.955 41.9045 117.783 41.6379 117.494L41.4273 117.265C34.2955 133.456 26.2968 151.882 26.2409 153.201C26.1421 155.536 25.2452 157.002 23.6334 155.598C22.0217 154.193 18.6004 148.037 18.6004 148.037C18.3225 145.46 20.6793 130.205 23.6836 112.414L14.2551 102.167C13.9296 101.813 13.6769 101.399 13.5116 100.948C13.3463 100.497 13.2715 100.018 13.2916 99.5379C13.3117 99.0579 13.4262 98.5866 13.6287 98.1508C13.8311 97.7151 14.1175 97.3235 14.4715 96.9984L15.5144 96.0392C16.2294 95.3827 17.1759 95.0368 18.1459 95.0774C19.116 95.1179 20.0302 95.5416 20.6878 96.2554L25.5447 101.534C26.4988 96.022 27.4745 90.464 28.42 85.1322L18.5918 74.4515C17.9349 73.7372 17.5888 72.7914 17.6296 71.8221C17.6705 70.8529 18.0949 69.9395 18.8096 69.2829L19.8526 68.3237C20.5674 67.6672 21.5138 67.3213 22.4837 67.3621C23.4536 67.4029 24.3676 67.8271 25.0246 68.5413L30.3484 74.3255C31.9359 65.486 33.2969 58.0195 34.1207 53.5296C27.3255 45.7825 21.758 39.1535 17.3124 33.6986C9.47423 24.6129 1.8581 14.8943 0.875279 10.4072" fill="#1370A4"/>
<path d="M363 271.989L362.784 273C362.062 272.845 361.339 272.689 360.616 272.53L360.837 271.528C361.559 271.687 362.28 271.843 363 271.996" fill="#FACC46"/>
<path d="M321.452 210.816C320.146 211.486 318.792 212.127 317.428 212.725L317.012 211.779C318.358 211.189 319.693 210.556 320.981 209.896L321.452 210.816" fill="#FACC46"/>
<path d="M315.115 255.756L314.618 256.662C313.312 255.947 312.015 255.199 310.766 254.443L311.302 253.558C312.538 254.307 313.822 255.047 315.115 255.756" fill="#FACC46"/>
<path d="M323 259.683L322.57 260.625C321.207 260.008 319.856 259.367 318.558 258.72L319.02 257.795C320.309 258.438 321.647 259.072 323 259.683" fill="#FACC46"/>
<path d="M329.106 206.267C327.892 207.097 326.629 207.903 325.348 208.664L324.821 207.775C326.081 207.027 327.326 206.233 328.521 205.414L329.106 206.273" fill="#FACC46"/>
<path d="M338.546 196.919C339.576 195.838 340.551 194.731 341.438 193.626L342.243 194.275C341.337 195.4 340.345 196.528 339.295 197.629L338.546 196.913" fill="#FACC46"/>
<path d="M339.487 265.926L339.174 266.911C337.749 266.46 336.331 265.992 334.96 265.519L335.296 264.543C336.659 265.012 338.068 265.478 339.487 265.926" fill="#FACC46"/>
<path d="M331.147 263.048L330.782 264.016C329.382 263.488 327.992 262.941 326.65 262.388L327.04 261.434C328.371 261.984 329.752 262.528 331.141 263.051" fill="#FACC46"/>
<path d="M300.535 245.962L299.876 246.758C298.74 245.821 297.612 244.834 296.528 243.821L297.233 243.067C298.303 244.069 299.413 245.037 300.535 245.962Z" fill="#FACC46"/>
<path d="M298.456 156.163C299.731 155.395 301.052 154.674 302.38 154.026L302.834 154.955C301.534 155.591 300.24 156.295 298.991 157.048L298.456 156.163" fill="#FACC46"/>
<path d="M319.535 149.33L319.608 150.361C318.155 150.464 316.707 150.641 315.272 150.892L315.095 149.872C316.566 149.617 318.048 149.436 319.537 149.33" fill="#FACC46"/>
<path d="M300.248 217.003C301.688 216.717 303.132 216.389 304.538 216.034L304.792 217.036C303.369 217.397 301.909 217.728 300.45 218.019L300.248 217.005" fill="#FACC46"/>
<path d="M313.294 214.395C311.918 214.906 310.499 215.388 309.078 215.827L308.773 214.84C310.174 214.411 311.575 213.928 312.928 213.423L313.289 214.392" fill="#FACC46"/>
<path d="M307.59 251.198L307.017 252.057C305.779 251.228 304.555 250.366 303.38 249.495L303.996 248.665C305.157 249.524 306.368 250.383 307.591 251.198" fill="#FACC46"/>
<path d="M344.882 190.668L344.023 190.096C344.824 188.88 345.555 187.621 346.215 186.324L347.137 186.79C346.461 188.12 345.71 189.411 344.887 190.655" fill="#FACC46"/>
<path d="M283.251 172.016C282.437 173.23 281.675 174.488 280.986 175.758L280.076 175.264C280.783 173.967 281.561 172.68 282.392 171.441L283.251 172.014" fill="#FACC46"/>
<path d="M326.025 149.383C326.846 149.456 327.669 149.557 328.472 149.682L328.313 150.703C327.533 150.581 326.737 150.484 325.932 150.416C325.286 150.359 324.627 150.316 323.974 150.292L324.012 149.26C324.684 149.285 325.362 149.328 326.018 149.387" fill="#FACC46"/>
<path d="M332.573 151.642L332.859 150.65C334.301 151.065 335.712 151.585 337.078 152.205L336.649 153.145C335.328 152.545 333.965 152.043 332.571 151.642" fill="#FACC46"/>
<path d="M277.062 209.719L276.059 209.962C275.705 208.509 275.409 207.037 275.178 205.588L276.2 205.425C276.426 206.847 276.717 208.289 277.059 209.72" fill="#FACC46"/>
<path d="M336.1 200.746C335.008 201.737 333.863 202.706 332.696 203.627L332.055 202.815C333.202 201.91 334.33 200.954 335.404 199.982L336.1 200.746" fill="#FACC46"/>
<path d="M276.588 183.485C277.028 182.076 277.548 180.663 278.132 179.289L279.083 179.693C278.51 181.037 278.005 182.413 277.575 183.793L276.588 183.485Z" fill="#FACC46"/>
<path d="M341.01 154.412C342.257 155.263 343.417 156.235 344.471 157.316L343.729 158.032C342.722 157.001 341.616 156.073 340.425 155.261L341.01 154.402" fill="#FACC46"/>
<path d="M348.495 180.51C348.715 179.733 348.902 178.935 349.051 178.139L350.067 178.329C349.912 179.156 349.719 179.983 349.494 180.791C349.318 181.416 349.117 182.049 348.9 182.67L347.924 182.33C348.134 181.727 348.328 181.116 348.497 180.51" fill="#FACC46"/>
<path d="M349.246 169.509L350.269 169.357C350.486 170.846 350.575 172.35 350.536 173.854L349.503 173.828C349.54 172.384 349.455 170.938 349.246 169.509" fill="#FACC46"/>
<path d="M346.374 161.428L347.255 160.887C348.046 162.176 348.696 163.546 349.195 164.973L348.219 165.315C347.744 163.957 347.126 162.654 346.374 161.428" fill="#FACC46"/>
<path d="M356.529 270.545L356.294 271.547C354.825 271.203 353.375 270.854 351.984 270.506L352.235 269.504C353.622 269.852 355.066 270.199 356.533 270.542" fill="#FACC46"/>
<path d="M294.104 239.978L293.354 240.694C292.333 239.623 291.332 238.508 290.377 237.381L291.167 236.714C292.108 237.827 293.097 238.925 294.104 239.981" fill="#FACC46"/>
<path d="M347.957 268.398L347.687 269.401C346.238 269.011 344.801 268.609 343.417 268.205L343.703 267.213C345.08 267.615 346.511 268.015 347.954 268.404" fill="#FACC46"/>
<path d="M306.482 152.248C307.878 151.718 309.307 151.245 310.732 150.856L311.007 151.851C309.614 152.236 308.216 152.694 306.852 153.214L306.484 152.248" fill="#FACC46"/>
<path d="M203.757 192.664L204.133 192.883L203.61 193.775L203.235 193.555C202.088 192.883 200.932 192.197 199.796 191.517L200.328 190.631C201.459 191.31 202.62 191.994 203.756 192.664" fill="#FACC46"/>
<path d="M235.656 208.747L235.268 209.704C233.921 209.158 232.546 208.579 231.177 207.986L231.589 207.039C232.95 207.628 234.311 208.203 235.656 208.747" fill="#FACC46"/>
<path d="M189.062 183.646L188.505 184.516C187.269 183.723 186.018 182.914 184.78 182.109L185.353 181.25C186.581 182.053 187.829 182.861 189.062 183.651" fill="#FACC46"/>
<path d="M227.56 205.24L227.13 206.178C225.812 205.571 224.463 204.933 223.119 204.281L223.57 203.352C224.905 204.001 226.248 204.64 227.56 205.24Z" fill="#FACC46"/>
<path d="M181.664 178.809L181.091 179.668C179.876 178.859 178.64 178.027 177.416 177.196L177.998 176.337C179.218 177.167 180.452 177.997 181.664 178.805" fill="#FACC46"/>
<path d="M219.617 201.386L219.149 202.307C217.859 201.648 216.531 200.961 215.215 200.262L215.7 199.349C217.011 200.045 218.329 200.73 219.617 201.386" fill="#FACC46"/>
<path d="M211.815 197.248L211.315 198.153C210.053 197.459 208.752 196.73 207.447 195.99L207.958 195.091C209.258 195.83 210.554 196.555 211.814 197.248" fill="#FACC46"/>
<path d="M196.551 188.34L196.009 189.221C194.76 188.455 193.494 187.67 192.246 186.887L192.796 186.011C194.041 186.792 195.305 187.576 196.551 188.34" fill="#FACC46"/>
<path d="M152.894 158.259L152.27 159.083C151.113 158.205 149.929 157.3 148.751 156.395L149.381 155.576C150.558 156.48 151.74 157.383 152.894 158.259" fill="#FACC46"/>
<path d="M145.884 152.87L145.25 153.687C144.091 152.785 142.917 151.867 141.764 150.958L142.403 150.146C143.549 151.054 144.727 151.97 145.884 152.866" fill="#FACC46"/>
<path d="M138.937 147.401L138.293 148.21C137.161 147.308 136 146.378 134.837 145.444L135.484 144.639C136.645 145.571 137.807 146.501 138.937 147.401Z" fill="#FACC46"/>
<path d="M159.973 163.557L159.359 164.389C158.189 163.53 156.993 162.638 155.804 161.747L156.424 160.92C157.612 161.809 158.806 162.695 159.973 163.557Z" fill="#FACC46"/>
<path d="M167.124 168.754L166.522 169.594C165.329 168.735 164.121 167.876 162.93 167.004L163.539 166.168C164.727 167.027 165.933 167.902 167.121 168.754" fill="#FACC46"/>
<path d="M291.549 218.302C293.008 218.159 294.476 217.973 295.915 217.758L296.068 218.78C294.612 218.997 293.127 219.183 291.652 219.33L291.549 218.302Z" fill="#FACC46"/>
<path d="M174.353 173.842L173.764 174.692C172.555 173.855 171.329 173.002 170.132 172.157L170.728 171.313C171.926 172.156 173.145 173.008 174.353 173.842" fill="#FACC46"/>
<path d="M243.914 211.852L243.577 212.829C242.2 212.355 240.796 211.848 239.401 211.324L239.765 210.357C241.15 210.879 242.547 211.381 243.92 211.852" fill="#FACC46"/>
<path d="M278.26 213.935C278.705 215.307 279.211 216.693 279.764 218.054L278.807 218.442C278.244 217.059 277.73 215.649 277.276 214.255L278.26 213.935Z" fill="#FACC46"/>
<path d="M285.044 167.845C285.973 166.7 286.969 165.569 288.002 164.499L288.747 165.215C287.734 166.263 286.759 167.362 285.847 168.494L285.044 167.844" fill="#FACC46"/>
<path d="M288.43 233.277L287.602 233.895C286.713 232.707 285.85 231.48 285.042 230.25L285.902 229.677C286.698 230.888 287.548 232.098 288.426 233.271" fill="#FACC46"/>
<path d="M291.241 161.422C292.362 160.447 293.534 159.511 294.734 158.637L295.344 159.472C294.17 160.331 293.018 161.246 291.92 162.201L291.241 161.422" fill="#FACC46"/>
<path d="M287.211 219.671C285.741 219.75 284.244 219.795 282.77 219.814L282.761 218.78C284.227 218.769 285.707 218.724 287.161 218.647L287.217 219.678" fill="#FACC46"/>
<path d="M283.608 225.94L282.71 226.453C281.97 225.164 281.268 223.833 280.625 222.513L281.555 222.06C282.188 223.36 282.879 224.665 283.608 225.94" fill="#FACC46"/>
<path d="M260.897 216.541L260.689 217.553C259.257 217.267 257.797 216.935 256.354 216.585L256.597 215.583C258.03 215.928 259.476 216.252 260.896 216.543" fill="#FACC46"/>
<path d="M252.331 214.474L252.055 215.476C250.652 215.086 249.218 214.664 247.795 214.222L248.099 213.228C249.512 213.668 250.934 214.087 252.327 214.474" fill="#FACC46"/>
<path d="M269.589 217.983L269.46 219.009C268.006 218.825 266.527 218.608 265.062 218.365L265.232 217.346C266.684 217.586 268.149 217.801 269.589 217.983" fill="#FACC46"/>
<path d="M274.791 192.233C274.949 190.753 275.18 189.267 275.475 187.816L276.488 188.022C276.201 189.441 275.975 190.894 275.82 192.343L274.791 192.233" fill="#FACC46"/>
<path d="M275.688 201.078L274.656 201.154C274.546 199.665 274.502 198.163 274.523 196.692L275.556 196.707C275.536 198.148 275.581 199.619 275.688 201.078" fill="#FACC46"/>
<path d="M278.36 218.709L278.321 219.741C276.847 219.685 275.353 219.598 273.88 219.475L273.965 218.444C275.422 218.564 276.899 218.653 278.359 218.709" fill="#FACC46"/>
</svg>
